<svg width="53" height="75" viewBox="0 0 53 75" fill="none" xmlns="http://www.w3.org/2000/svg">
<path d="M26.5911 0.0302734C40.9357 0.0304077 52.5637 12.0132 52.5637 26.7949C52.5636 41.5765 40.9356 53.5594 26.5911 53.5596C12.2464 53.5596 0.617559 41.5766 0.617432 26.7949C0.617432 12.0131 12.2464 0.0302734 26.5911 0.0302734ZM39.3528 18.376C39.7888 16.574 38.6858 15.7565 37.5432 16.291L12.5247 26.2324C10.8169 26.9383 10.8267 27.9199 12.2131 28.3574L18.634 30.4229L33.4973 20.7598C34.199 20.3213 34.8432 20.5566 34.3147 21.04L22.2708 32.2402L21.8293 39.0625C22.4785 39.0624 22.7658 38.7566 23.1282 38.3936L26.2473 35.2676L32.7375 40.209C33.932 40.8881 34.7945 40.5365 35.092 39.0664L39.3528 18.376Z" fill="#ADD7FF"/>
<path d="M9.40932 66.7308H10.4393C10.2793 67.5174 9.89599 68.1608 9.28932 68.6608C8.68932 69.1608 7.95932 69.4108 7.09932 69.4108C6.09265 69.4108 5.26932 69.0741 4.62932 68.4008C3.99599 67.7274 3.67932 66.9041 3.67932 65.9308C3.67932 64.9641 3.99932 64.1408 4.63932 63.4608C5.27932 62.7808 6.09932 62.4408 7.09932 62.4408C7.93932 62.4408 8.65932 62.6874 9.25932 63.1808C9.86599 63.6674 10.2527 64.2974 10.4193 65.0708H9.39932C9.25265 64.5774 8.97265 64.1741 8.55932 63.8608C8.15265 63.5474 7.67265 63.3908 7.11932 63.3908C6.40599 63.3908 5.81599 63.6408 5.34932 64.1408C4.88932 64.6341 4.65932 65.2308 4.65932 65.9308C4.65932 66.6374 4.88932 67.2374 5.34932 67.7308C5.81599 68.2174 6.40599 68.4608 7.11932 68.4608C7.69932 68.4608 8.19266 68.3008 8.59932 67.9808C9.01266 67.6541 9.28265 67.2374 9.40932 66.7308ZM13.7649 64.1908C14.3982 64.1908 14.9082 64.3974 15.2949 64.8108C15.6815 65.2174 15.8749 65.7608 15.8749 66.4408V69.2808H14.9249V66.6108C14.9249 66.1708 14.8015 65.8108 14.5549 65.5308C14.3149 65.2508 13.9849 65.1108 13.5649 65.1108C13.1115 65.1108 12.7415 65.2708 12.4549 65.5908C12.1749 65.9041 12.0349 66.3108 12.0349 66.8108V69.2808H11.0849V62.0808H12.0349V65.0008H12.0749C12.4882 64.4608 13.0515 64.1908 13.7649 64.1908ZM20.7081 65.0508V64.3308H21.6481V69.2808H20.7081V68.5108H20.6681C20.2481 69.1108 19.6548 69.4141 18.8881 69.4208C18.1681 69.4341 17.5681 69.1941 17.0881 68.7008C16.6148 68.2074 16.3781 67.5741 16.3781 66.8008C16.3781 66.0274 16.6148 65.3974 17.0881 64.9108C17.5615 64.4241 18.1648 64.1841 18.8981 64.1908C19.6581 64.1974 20.2481 64.4841 20.6681 65.0508H20.7081ZM19.0281 68.5008C19.5215 68.5008 19.9215 68.3374 20.2281 68.0108C20.5415 67.6841 20.6981 67.2808 20.6981 66.8008C20.6981 66.3208 20.5415 65.9174 20.2281 65.5908C19.9215 65.2641 19.5215 65.1008 19.0281 65.1008C18.5215 65.1008 18.1115 65.2641 17.7981 65.5908C17.4848 65.9174 17.3281 66.3208 17.3281 66.8008C17.3281 67.2808 17.4848 67.6841 17.7981 68.0108C18.1115 68.3374 18.5215 68.5008 19.0281 68.5008ZM25.2649 64.1908C25.8982 64.1908 26.4082 64.3974 26.7949 64.8108C27.1815 65.2174 27.3749 65.7608 27.3749 66.4408V69.2808H26.4249V66.6108C26.4249 66.1708 26.3015 65.8108 26.0549 65.5308C25.8149 65.2508 25.4849 65.1108 25.0649 65.1108C24.6115 65.1108 24.2415 65.2708 23.9549 65.5908C23.6749 65.9041 23.5349 66.3108 23.5349 66.8108V69.2808H22.5849V64.3308H23.5149V65.0008H23.5549C23.9815 64.4608 24.5515 64.1908 25.2649 64.1908ZM30.8781 64.1908C31.5115 64.1908 32.0215 64.3974 32.4081 64.8108C32.7948 65.2174 32.9881 65.7608 32.9881 66.4408V69.2808H32.0381V66.6108C32.0381 66.1708 31.9148 65.8108 31.6681 65.5308C31.4281 65.2508 31.0981 65.1108 30.6781 65.1108C30.2248 65.1108 29.8548 65.2708 29.5681 65.5908C29.2881 65.9041 29.1481 66.3108 29.1481 66.8108V69.2808H28.1981V64.3308H29.1281V65.0008H29.1681C29.5948 64.4608 30.1648 64.1908 30.8781 64.1908ZM36.0514 64.1908C36.8581 64.1908 37.4981 64.4741 37.9714 65.0408C38.4514 65.6074 38.6581 66.3074 38.5914 67.1408H34.5014C34.5348 67.5341 34.7014 67.8608 35.0014 68.1208C35.3014 68.3808 35.6714 68.5108 36.1114 68.5108C36.4314 68.5108 36.7148 68.4408 36.9614 68.3008C37.2081 68.1608 37.3881 67.9741 37.5014 67.7408H38.4914C38.3248 68.2608 38.0248 68.6708 37.5914 68.9708C37.1581 69.2708 36.6514 69.4208 36.0714 69.4208C35.2981 69.4208 34.6748 69.1708 34.2014 68.6708C33.7281 68.1641 33.4914 67.5441 33.4914 66.8108C33.4914 66.0708 33.7314 65.4508 34.2114 64.9508C34.6914 64.4441 35.3048 64.1908 36.0514 64.1908ZM36.0314 65.1008C35.6448 65.1008 35.3148 65.2141 35.0414 65.4408C34.7681 65.6608 34.5948 65.9474 34.5214 66.3008H37.5614C37.4881 65.9408 37.3114 65.6508 37.0314 65.4308C36.7581 65.2108 36.4248 65.1008 36.0314 65.1008ZM39.111 68.0008V62.0808H40.061V67.8708C40.061 68.1974 40.2277 68.3608 40.561 68.3608H41.361V69.2808H40.421C40.001 69.2808 39.6777 69.1708 39.451 68.9508C39.2244 68.7241 39.111 68.4074 39.111 68.0008Z" fill="#ADD7FF"/>
</svg>
