<svg width="53" height="75" viewBox="0 0 53 75" fill="none" xmlns="http://www.w3.org/2000/svg">
<path d="M26.6025 0.0302734C40.9471 0.0304435 52.5752 12.0132 52.5752 26.7949C52.5751 41.5765 40.947 53.5594 26.6025 53.5596C12.2579 53.5596 0.629034 41.5766 0.628906 26.7949C0.628906 12.0131 12.2578 0.0302734 26.6025 0.0302734ZM39.3643 18.376C39.8002 16.5742 38.6972 15.7567 37.5547 16.291L12.5352 26.2324C10.8278 26.9383 10.8382 27.92 12.2246 28.3574L18.6445 30.4229L33.5088 20.7598C34.2104 20.3213 34.8544 20.5567 34.3262 21.04L22.2822 32.2402L21.8398 39.0625C22.4891 39.0625 22.7763 38.7566 23.1387 38.3936L26.2588 35.2676L32.749 40.209C33.9434 40.8881 34.806 40.5366 35.1035 39.0664L39.3643 18.376Z" fill="#C95CFF"/>
<path d="M16.2388 66.7308H17.2688C17.1088 67.5174 16.7255 68.1608 16.1188 68.6608C15.5188 69.1608 14.7888 69.4108 13.9288 69.4108C12.9221 69.4108 12.0988 69.0741 11.4588 68.4008C10.8255 67.7274 10.5088 66.9041 10.5088 65.9308C10.5088 64.9641 10.8288 64.1408 11.4688 63.4608C12.1088 62.7808 12.9288 62.4408 13.9288 62.4408C14.7688 62.4408 15.4888 62.6874 16.0888 63.1808C16.6955 63.6674 17.0821 64.2974 17.2488 65.0708H16.2288C16.0821 64.5774 15.8021 64.1741 15.3888 63.8608C14.9821 63.5474 14.5021 63.3908 13.9488 63.3908C13.2355 63.3908 12.6455 63.6408 12.1788 64.1408C11.7188 64.6341 11.4888 65.2308 11.4888 65.9308C11.4888 66.6374 11.7188 67.2374 12.1788 67.7308C12.6455 68.2174 13.2355 68.4608 13.9488 68.4608C14.5288 68.4608 15.0221 68.3008 15.4288 67.9808C15.8421 67.6541 16.1121 67.2374 16.2388 66.7308ZM20.6943 64.1908C21.3277 64.1908 21.8377 64.3974 22.2243 64.8108C22.611 65.2174 22.8043 65.7608 22.8043 66.4408V69.2808H21.8543V66.6108C21.8543 66.1708 21.731 65.8108 21.4843 65.5308C21.2443 65.2508 20.9143 65.1108 20.4943 65.1108C20.041 65.1108 19.671 65.2708 19.3843 65.5908C19.1043 65.9041 18.9643 66.3108 18.9643 66.8108V69.2808H18.0143V62.0808H18.9643V65.0008H19.0043C19.4177 64.4608 19.981 64.1908 20.6943 64.1908ZM27.7376 65.0508V64.3308H28.6776V69.2808H27.7376V68.5108H27.6976C27.2776 69.1108 26.6843 69.4141 25.9176 69.4208C25.1976 69.4341 24.5976 69.1941 24.1176 68.7008C23.6443 68.2074 23.4076 67.5741 23.4076 66.8008C23.4076 66.0274 23.6443 65.3974 24.1176 64.9108C24.591 64.4241 25.1943 64.1841 25.9276 64.1908C26.6876 64.1974 27.2776 64.4841 27.6976 65.0508H27.7376ZM26.0576 68.5008C26.551 68.5008 26.951 68.3374 27.2576 68.0108C27.571 67.6841 27.7276 67.2808 27.7276 66.8008C27.7276 66.3208 27.571 65.9174 27.2576 65.5908C26.951 65.2641 26.551 65.1008 26.0576 65.1008C25.551 65.1008 25.141 65.2641 24.8276 65.5908C24.5143 65.9174 24.3576 66.3208 24.3576 66.8008C24.3576 67.2808 24.5143 67.6841 24.8276 68.0108C25.141 68.3374 25.551 68.5008 26.0576 68.5008ZM33.3343 64.3308V65.2508H31.0843V67.8608C31.0843 68.1874 31.251 68.3508 31.5843 68.3508H33.3343V69.2808H31.3943C30.9877 69.2808 30.6743 69.1741 30.4543 68.9608C30.241 68.7474 30.1343 68.4408 30.1343 68.0408V65.2508H29.2343V64.3308H30.1343V62.5808H31.0843V64.3308H33.3343Z" fill="#C95CFF"/>
</svg>
