<svg width="53" height="54" viewBox="0 0 53 54" fill="none" xmlns="http://www.w3.org/2000/svg">
<path d="M26.2271 0.0302734C40.5716 0.0304428 52.1997 12.0132 52.1997 26.7949C52.1996 41.5765 40.5715 53.5594 26.2271 53.5596C11.8824 53.5596 0.253546 41.5766 0.253418 26.7949C0.253418 12.0131 11.8823 0.0302734 26.2271 0.0302734ZM25.8325 19.7285C24.2717 19.7127 22.951 19.7346 22.2026 20.1045C21.7052 20.3505 21.3214 20.8994 21.5552 20.9316C21.844 20.9705 22.499 21.1101 22.8462 21.5879C23.293 22.2034 23.2789 23.5814 23.2788 23.5898C23.2788 23.5898 23.5361 27.4053 22.6772 27.8799C22.0882 28.2051 21.2797 27.5419 19.5425 24.5068C18.6624 22.9686 17.9957 21.2694 17.9819 21.2344C17.9819 21.2344 17.8515 20.9129 17.6196 20.7402C17.3431 20.5345 16.959 20.4685 16.9487 20.4668L12.7925 20.4941C12.7925 20.4941 12.1682 20.5115 11.939 20.7861C11.7355 21.0294 11.9233 21.5352 11.9233 21.5352C11.9525 21.6042 15.1935 29.2531 18.8618 33.1172C22.241 36.6749 26.0776 36.4424 26.0776 36.4424H27.8159C27.8159 36.4424 28.3409 36.3829 28.6099 36.0908C28.8517 35.8278 28.8474 35.3354 28.8472 35.3184C28.8472 35.3184 28.8152 32.9586 29.8979 32.6104C30.965 32.2686 32.3356 34.8916 33.7896 35.9004C34.879 36.6569 35.7078 36.4997 35.7212 36.4971L39.6069 36.4424C39.6069 36.4424 41.6385 36.3154 40.6753 34.6992C40.5956 34.5668 40.1137 33.5029 37.7876 31.3184C35.3504 29.0315 35.6772 29.4014 38.6108 25.4453C40.3979 23.0361 41.1125 21.5645 40.8892 20.9355C40.6768 20.3344 39.3618 20.4941 39.3618 20.4941L34.9888 20.5215C34.9888 20.5215 34.6638 20.4767 34.4233 20.6221C34.1887 20.7646 34.0366 21.0977 34.0366 21.0977C34.0248 21.1294 33.3368 22.9746 32.4214 24.5469C30.4736 27.8915 29.6952 28.0686 29.3765 27.8613C28.6356 27.3761 28.8208 25.9154 28.8208 24.8779C28.8208 21.6356 29.3071 20.2844 27.8745 19.9346C27.3993 19.818 27.049 19.7415 25.8325 19.7285Z" fill="#C95CFF"/>
</svg>
