<svg width="53" height="54" viewBox="0 0 53 54" fill="none" xmlns="http://www.w3.org/2000/svg">
<path d="M26.7793 0.0307617C41.1239 0.0308451 52.7529 12.0137 52.7529 26.7954C52.7529 41.5771 41.1239 53.56 26.7793 53.5601C12.4346 53.5601 0.805721 41.5772 0.805664 26.7954C0.805664 12.0136 12.4346 0.0307617 26.7793 0.0307617ZM26.7793 16.9819C26.7793 16.9819 18.1158 16.9817 15.9551 17.5942C14.763 17.9313 13.8245 18.9248 13.5059 20.186C12.927 22.472 12.9268 27.2417 12.9268 27.2417C12.9268 27.2685 12.9287 32.0177 13.5059 34.2974C13.8245 35.5585 14.7631 36.5519 15.9551 36.8892C18.1159 37.5016 26.7793 37.5015 26.7793 37.5015C26.8291 37.5015 35.4494 37.4998 37.6035 36.8892C38.7954 36.5518 39.7341 35.5585 40.0527 34.2974C40.6301 32.0177 40.6318 27.2685 40.6318 27.2417C40.6318 27.2417 40.6317 22.472 40.0527 20.186C39.7342 18.9249 38.7954 17.9314 37.6035 17.5942C35.4494 16.9834 26.8291 16.9819 26.7793 16.9819Z" fill="#C95CFF"/>
<path d="M24.1816 32.1487V23.2271L31.1079 27.688L24.1816 32.1487Z" fill="#C95CFF"/>
</svg>
