<svg width="48" height="48" viewBox="0 0 48 48" fill="none" xmlns="http://www.w3.org/2000/svg">
<path d="M8.0794 21.9782L8.0716 25.9593L31.9584 26.0061L31.9506 29.9872L35.9317 29.995L35.9395 26.0139L39.9206 26.0217L39.9284 22.0405L35.9473 22.0328L35.9551 18.0516L31.9739 18.0438L31.9662 22.025L8.0794 21.9782ZM28.0006 14.0549L31.9817 14.0627L31.9739 18.0438L27.9928 18.036L28.0006 14.0549ZM28.0006 14.0549L24.0195 14.0471L24.0273 10.066L28.0084 10.0738L28.0006 14.0549ZM27.9616 33.9605L31.9428 33.9683L31.9506 29.9872L27.9694 29.9794L27.9616 33.9605ZM27.9616 33.9605L23.9805 33.9527L23.9727 37.9339L27.9539 37.9417L27.9616 33.9605Z" fill="white"/>
</svg>
