<svg width="188" height="32" viewBox="0 0 188 32" fill="none" xmlns="http://www.w3.org/2000/svg">
<mask id="path-1-outside-1_4_439" maskUnits="userSpaceOnUse" x="0" y="0.5" width="188" height="32" fill="black">
<rect fill="white" y="0.5" width="188" height="32"/>
<path d="M21.3 8.7H8.7V12.93H19.2V17.13H8.7V25.5H4.5V4.5H21.3V8.7ZM23.1035 4.5H39.9035V17.13H31.2635L39.9035 21.27V21.3V25.5H35.7035V23.49L27.2735 19.44V25.5H23.1035V4.5ZM35.7035 12.93V8.73H27.2735V12.93H35.7035ZM42.791 4.5H59.591V25.5H55.391V21.3H46.961V25.5H42.791V4.5ZM55.391 17.13V8.7H46.961V17.13H55.391ZM79.3957 4.5H83.5657V25.5H79.3957V10.77L73.0957 13.8L66.7657 10.77V25.5H62.5957V4.5H66.7657V6.54L73.0957 9.57L79.3957 6.54V4.5ZM103.39 8.7H90.7598V12.93H101.26V17.13H90.7598V21.3H103.39V25.5H86.5898V4.5H103.39V8.7ZM122.491 8.7H109.891V12.93H120.391V17.13H109.891V25.5H105.691V4.5H122.491V8.7ZM136.895 17.13H141.095V25.5H124.295V4.5H128.495V21.3H136.895V17.13ZM143.074 4.5H159.874V25.5H143.074V4.5ZM155.674 21.3V8.7H147.244V21.3H155.674ZM179.679 4.5H183.879V25.5L173.379 20.46L162.879 25.5V4.5H167.079V19.26L173.379 16.23L179.679 19.26V4.5Z"/>
</mask>
<path d="M21.3 8.7H8.7V12.93H19.2V17.13H8.7V25.5H4.5V4.5H21.3V8.7ZM23.1035 4.5H39.9035V17.13H31.2635L39.9035 21.27V21.3V25.5H35.7035V23.49L27.2735 19.44V25.5H23.1035V4.5ZM35.7035 12.93V8.73H27.2735V12.93H35.7035ZM42.791 4.5H59.591V25.5H55.391V21.3H46.961V25.5H42.791V4.5ZM55.391 17.13V8.7H46.961V17.13H55.391ZM79.3957 4.5H83.5657V25.5H79.3957V10.77L73.0957 13.8L66.7657 10.77V25.5H62.5957V4.5H66.7657V6.54L73.0957 9.57L79.3957 6.54V4.5ZM103.39 8.7H90.7598V12.93H101.26V17.13H90.7598V21.3H103.39V25.5H86.5898V4.5H103.39V8.7ZM122.491 8.7H109.891V12.93H120.391V17.13H109.891V25.5H105.691V4.5H122.491V8.7ZM136.895 17.13H141.095V25.5H124.295V4.5H128.495V21.3H136.895V17.13ZM143.074 4.5H159.874V25.5H143.074V4.5ZM155.674 21.3V8.7H147.244V21.3H155.674ZM179.679 4.5H183.879V25.5L173.379 20.46L162.879 25.5V4.5H167.079V19.26L173.379 16.23L179.679 19.26V4.5Z" fill="white"/>
<path d="M21.3 8.7V12.7H25.3V8.7H21.3ZM8.7 8.7V4.7H4.7V8.7H8.7ZM8.7 12.93H4.7V16.93H8.7V12.93ZM19.2 12.93H23.2V8.93H19.2V12.93ZM19.2 17.13V21.13H23.2V17.13H19.2ZM8.7 17.13V13.13H4.7V17.13H8.7ZM8.7 25.5V29.5H12.7V25.5H8.7ZM4.5 25.5H0.5V29.5H4.5V25.5ZM4.5 4.5V0.499999H0.5V4.5H4.5ZM21.3 4.5H25.3V0.499999H21.3V4.5ZM21.3 8.7V4.7H8.7V8.7V12.7H21.3V8.7ZM8.7 8.7H4.7V12.93H8.7H12.7V8.7H8.7ZM8.7 12.93V16.93H19.2V12.93V8.93H8.7V12.93ZM19.2 12.93H15.2V17.13H19.2H23.2V12.93H19.2ZM19.2 17.13V13.13H8.7V17.13V21.13H19.2V17.13ZM8.7 17.13H4.7V25.5H8.7H12.7V17.13H8.7ZM8.7 25.5V21.5H4.5V25.5V29.5H8.7V25.5ZM4.5 25.5H8.5V4.5H4.5H0.5V25.5H4.5ZM4.5 4.5V8.5H21.3V4.5V0.499999H4.5V4.5ZM21.3 4.5H17.3V8.7H21.3H25.3V4.5H21.3ZM23.1035 4.5V0.499999H19.1035V4.5H23.1035ZM39.9035 4.5H43.9035V0.499999H39.9035V4.5ZM39.9035 17.13V21.13H43.9035V17.13H39.9035ZM31.2635 17.13V13.13L29.535 20.7373L31.2635 17.13ZM39.9035 21.27H43.9035V18.7512L41.632 17.6627L39.9035 21.27ZM39.9035 25.5V29.5H43.9035V25.5H39.9035ZM35.7035 25.5H31.7035V29.5H35.7035V25.5ZM35.7035 23.49H39.7035V20.974L37.4357 19.8845L35.7035 23.49ZM27.2735 19.44L29.0057 15.8345L23.2735 13.0806V19.44H27.2735ZM27.2735 25.5V29.5H31.2735V25.5H27.2735ZM23.1035 25.5H19.1035V29.5H23.1035V25.5ZM35.7035 12.93V16.93H39.7035V12.93H35.7035ZM35.7035 8.73H39.7035V4.73H35.7035V8.73ZM27.2735 8.73V4.73H23.2735V8.73H27.2735ZM27.2735 12.93H23.2735V16.93H27.2735V12.93ZM23.1035 4.5V8.5H39.9035V4.5V0.499999H23.1035V4.5ZM39.9035 4.5H35.9035V17.13H39.9035H43.9035V4.5H39.9035ZM39.9035 17.13V13.13H31.2635V17.13V21.13H39.9035V17.13ZM31.2635 17.13L29.535 20.7373L38.175 24.8773L39.9035 21.27L41.632 17.6627L32.992 13.5227L31.2635 17.13ZM39.9035 21.27H35.9035V21.3H39.9035H43.9035V21.27H39.9035ZM39.9035 21.3H35.9035V25.5H39.9035H43.9035V21.3H39.9035ZM39.9035 25.5V21.5H35.7035V25.5V29.5H39.9035V25.5ZM35.7035 25.5H39.7035V23.49H35.7035H31.7035V25.5H35.7035ZM35.7035 23.49L37.4357 19.8845L29.0057 15.8345L27.2735 19.44L25.5413 23.0455L33.9713 27.0955L35.7035 23.49ZM27.2735 19.44H23.2735V25.5H27.2735H31.2735V19.44H27.2735ZM27.2735 25.5V21.5H23.1035V25.5V29.5H27.2735V25.5ZM23.1035 25.5H27.1035V4.5H23.1035H19.1035V25.5H23.1035ZM35.7035 12.93H39.7035V8.73H35.7035H31.7035V12.93H35.7035ZM35.7035 8.73V4.73H27.2735V8.73V12.73H35.7035V8.73ZM27.2735 8.73H23.2735V12.93H27.2735H31.2735V8.73H27.2735ZM27.2735 12.93V16.93H35.7035V12.93V8.93H27.2735V12.93ZM42.791 4.5V0.499999H38.791V4.5H42.791ZM59.591 4.5H63.591V0.499999H59.591V4.5ZM59.591 25.5V29.5H63.591V25.5H59.591ZM55.391 25.5H51.391V29.5H55.391V25.5ZM55.391 21.3H59.391V17.3H55.391V21.3ZM46.961 21.3V17.3H42.961V21.3H46.961ZM46.961 25.5V29.5H50.961V25.5H46.961ZM42.791 25.5H38.791V29.5H42.791V25.5ZM55.391 17.13V21.13H59.391V17.13H55.391ZM55.391 8.7H59.391V4.7H55.391V8.7ZM46.961 8.7V4.7H42.961V8.7H46.961ZM46.961 17.13H42.961V21.13H46.961V17.13ZM42.791 4.5V8.5H59.591V4.5V0.499999H42.791V4.5ZM59.591 4.5H55.591V25.5H59.591H63.591V4.5H59.591ZM59.591 25.5V21.5H55.391V25.5V29.5H59.591V25.5ZM55.391 25.5H59.391V21.3H55.391H51.391V25.5H55.391ZM55.391 21.3V17.3H46.961V21.3V25.3H55.391V21.3ZM46.961 21.3H42.961V25.5H46.961H50.961V21.3H46.961ZM46.961 25.5V21.5H42.791V25.5V29.5H46.961V25.5ZM42.791 25.5H46.791V4.5H42.791H38.791V25.5H42.791ZM55.391 17.13H59.391V8.7H55.391H51.391V17.13H55.391ZM55.391 8.7V4.7H46.961V8.7V12.7H55.391V8.7ZM46.961 8.7H42.961V17.13H46.961H50.961V8.7H46.961ZM46.961 17.13V21.13H55.391V17.13V13.13H46.961V17.13ZM79.3957 4.5V0.499999H75.3957V4.5H79.3957ZM83.5657 4.5H87.5657V0.499999H83.5657V4.5ZM83.5657 25.5V29.5H87.5657V25.5H83.5657ZM79.3957 25.5H75.3957V29.5H79.3957V25.5ZM79.3957 10.77H83.3957V4.4076L77.662 7.16525L79.3957 10.77ZM73.0957 13.8L71.3687 17.408L73.0998 18.2366L74.8294 17.4048L73.0957 13.8ZM66.7657 10.77L68.4927 7.16204L62.7657 4.42067V10.77H66.7657ZM66.7657 25.5V29.5H70.7657V25.5H66.7657ZM62.5957 25.5H58.5957V29.5H62.5957V25.5ZM62.5957 4.5V0.499999H58.5957V4.5H62.5957ZM66.7657 4.5H70.7657V0.499999H66.7657V4.5ZM66.7657 6.54H62.7657V9.05995L65.0387 10.148L66.7657 6.54ZM73.0957 9.57L71.3687 13.178L73.0998 14.0066L74.8294 13.1748L73.0957 9.57ZM79.3957 6.54L81.1294 10.1448L83.3957 9.05478V6.54H79.3957ZM79.3957 4.5V8.5H83.5657V4.5V0.499999H79.3957V4.5ZM83.5657 4.5H79.5657V25.5H83.5657H87.5657V4.5H83.5657ZM83.5657 25.5V21.5H79.3957V25.5V29.5H83.5657V25.5ZM79.3957 25.5H83.3957V10.77H79.3957H75.3957V25.5H79.3957ZM79.3957 10.77L77.662 7.16525L71.362 10.1952L73.0957 13.8L74.8294 17.4048L81.1294 14.3748L79.3957 10.77ZM73.0957 13.8L74.8227 10.192L68.4927 7.16204L66.7657 10.77L65.0387 14.378L71.3687 17.408L73.0957 13.8ZM66.7657 10.77H62.7657V25.5H66.7657H70.7657V10.77H66.7657ZM66.7657 25.5V21.5H62.5957V25.5V29.5H66.7657V25.5ZM62.5957 25.5H66.5957V4.5H62.5957H58.5957V25.5H62.5957ZM62.5957 4.5V8.5H66.7657V4.5V0.499999H62.5957V4.5ZM66.7657 4.5H62.7657V6.54H66.7657H70.7657V4.5H66.7657ZM66.7657 6.54L65.0387 10.148L71.3687 13.178L73.0957 9.57L74.8227 5.96204L68.4927 2.93204L66.7657 6.54ZM73.0957 9.57L74.8294 13.1748L81.1294 10.1448L79.3957 6.54L77.662 2.93525L71.362 5.96525L73.0957 9.57ZM79.3957 6.54H83.3957V4.5H79.3957H75.3957V6.54H79.3957ZM103.39 8.7V12.7H107.39V8.7H103.39ZM90.7598 8.7V4.7H86.7598V8.7H90.7598ZM90.7598 12.93H86.7598V16.93H90.7598V12.93ZM101.26 12.93H105.26V8.93H101.26V12.93ZM101.26 17.13V21.13H105.26V17.13H101.26ZM90.7598 17.13V13.13H86.7598V17.13H90.7598ZM90.7598 21.3H86.7598V25.3H90.7598V21.3ZM103.39 21.3H107.39V17.3H103.39V21.3ZM103.39 25.5V29.5H107.39V25.5H103.39ZM86.5898 25.5H82.5898V29.5H86.5898V25.5ZM86.5898 4.5V0.499999H82.5898V4.5H86.5898ZM103.39 4.5H107.39V0.499999H103.39V4.5ZM103.39 8.7V4.7H90.7598V8.7V12.7H103.39V8.7ZM90.7598 8.7H86.7598V12.93H90.7598H94.7598V8.7H90.7598ZM90.7598 12.93V16.93H101.26V12.93V8.93H90.7598V12.93ZM101.26 12.93H97.2598V17.13H101.26H105.26V12.93H101.26ZM101.26 17.13V13.13H90.7598V17.13V21.13H101.26V17.13ZM90.7598 17.13H86.7598V21.3H90.7598H94.7598V17.13H90.7598ZM90.7598 21.3V25.3H103.39V21.3V17.3H90.7598V21.3ZM103.39 21.3H99.3898V25.5H103.39H107.39V21.3H103.39ZM103.39 25.5V21.5H86.5898V25.5V29.5H103.39V25.5ZM86.5898 25.5H90.5898V4.5H86.5898H82.5898V25.5H86.5898ZM86.5898 4.5V8.5H103.39V4.5V0.499999H86.5898V4.5ZM103.39 4.5H99.3898V8.7H103.39H107.39V4.5H103.39ZM122.491 8.7V12.7H126.491V8.7H122.491ZM109.891 8.7V4.7H105.891V8.7H109.891ZM109.891 12.93H105.891V16.93H109.891V12.93ZM120.391 12.93H124.391V8.93H120.391V12.93ZM120.391 17.13V21.13H124.391V17.13H120.391ZM109.891 17.13V13.13H105.891V17.13H109.891ZM109.891 25.5V29.5H113.891V25.5H109.891ZM105.691 25.5H101.691V29.5H105.691V25.5ZM105.691 4.5V0.499999H101.691V4.5H105.691ZM122.491 4.5H126.491V0.499999H122.491V4.5ZM122.491 8.7V4.7H109.891V8.7V12.7H122.491V8.7ZM109.891 8.7H105.891V12.93H109.891H113.891V8.7H109.891ZM109.891 12.93V16.93H120.391V12.93V8.93H109.891V12.93ZM120.391 12.93H116.391V17.13H120.391H124.391V12.93H120.391ZM120.391 17.13V13.13H109.891V17.13V21.13H120.391V17.13ZM109.891 17.13H105.891V25.5H109.891H113.891V17.13H109.891ZM109.891 25.5V21.5H105.691V25.5V29.5H109.891V25.5ZM105.691 25.5H109.691V4.5H105.691H101.691V25.5H105.691ZM105.691 4.5V8.5H122.491V4.5V0.499999H105.691V4.5ZM122.491 4.5H118.491V8.7H122.491H126.491V4.5H122.491ZM136.895 17.13V13.13H132.895V17.13H136.895ZM141.095 17.13H145.095V13.13H141.095V17.13ZM141.095 25.5V29.5H145.095V25.5H141.095ZM124.295 25.5H120.295V29.5H124.295V25.5ZM124.295 4.5V0.499999H120.295V4.5H124.295ZM128.495 4.5H132.495V0.499999H128.495V4.5ZM128.495 21.3H124.495V25.3H128.495V21.3ZM136.895 21.3V25.3H140.895V21.3H136.895ZM136.895 17.13V21.13H141.095V17.13V13.13H136.895V17.13ZM141.095 17.13H137.095V25.5H141.095H145.095V17.13H141.095ZM141.095 25.5V21.5H124.295V25.5V29.5H141.095V25.5ZM124.295 25.5H128.295V4.5H124.295H120.295V25.5H124.295ZM124.295 4.5V8.5H128.495V4.5V0.499999H124.295V4.5ZM128.495 4.5H124.495V21.3H128.495H132.495V4.5H128.495ZM128.495 21.3V25.3H136.895V21.3V17.3H128.495V21.3ZM136.895 21.3H140.895V17.13H136.895H132.895V21.3H136.895ZM143.074 4.5V0.499999H139.074V4.5H143.074ZM159.874 4.5H163.874V0.499999H159.874V4.5ZM159.874 25.5V29.5H163.874V25.5H159.874ZM143.074 25.5H139.074V29.5H143.074V25.5ZM155.674 21.3V25.3H159.674V21.3H155.674ZM155.674 8.7H159.674V4.7H155.674V8.7ZM147.244 8.7V4.7H143.244V8.7H147.244ZM147.244 21.3H143.244V25.3H147.244V21.3ZM143.074 4.5V8.5H159.874V4.5V0.499999H143.074V4.5ZM159.874 4.5H155.874V25.5H159.874H163.874V4.5H159.874ZM159.874 25.5V21.5H143.074V25.5V29.5H159.874V25.5ZM143.074 25.5H147.074V4.5H143.074H139.074V25.5H143.074ZM155.674 21.3H159.674V8.7H155.674H151.674V21.3H155.674ZM155.674 8.7V4.7H147.244V8.7V12.7H155.674V8.7ZM147.244 8.7H143.244V21.3H147.244H151.244V8.7H147.244ZM147.244 21.3V25.3H155.674V21.3V17.3H147.244V21.3ZM179.679 4.5V0.499999H175.679V4.5H179.679ZM183.879 4.5H187.879V0.499999H183.879V4.5ZM183.879 25.5L182.148 29.1061L187.879 31.8569V25.5H183.879ZM173.379 20.46L175.11 16.8539L173.379 16.0231L171.648 16.8539L173.379 20.46ZM162.879 25.5H158.879V31.8569L164.61 29.1061L162.879 25.5ZM162.879 4.5V0.499999H158.879V4.5H162.879ZM167.079 4.5H171.079V0.499999H167.079V4.5ZM167.079 19.26H163.079V25.6224L168.813 22.8648L167.079 19.26ZM173.379 16.23L175.113 12.6252L173.379 11.7914L171.645 12.6252L173.379 16.23ZM179.679 19.26L177.945 22.8648L183.679 25.6224V19.26H179.679ZM179.679 4.5V8.5H183.879V4.5V0.499999H179.679V4.5ZM183.879 4.5H179.879V25.5H183.879H187.879V4.5H183.879ZM183.879 25.5L185.61 21.8939L175.11 16.8539L173.379 20.46L171.648 24.0661L182.148 29.1061L183.879 25.5ZM173.379 20.46L171.648 16.8539L161.148 21.8939L162.879 25.5L164.61 29.1061L175.11 24.0661L173.379 20.46ZM162.879 25.5H166.879V4.5H162.879H158.879V25.5H162.879ZM162.879 4.5V8.5H167.079V4.5V0.499999H162.879V4.5ZM167.079 4.5H163.079V19.26H167.079H171.079V4.5H167.079ZM167.079 19.26L168.813 22.8648L175.113 19.8348L173.379 16.23L171.645 12.6252L165.345 15.6552L167.079 19.26ZM173.379 16.23L171.645 19.8348L177.945 22.8648L179.679 19.26L181.413 15.6552L175.113 12.6252L173.379 16.23ZM179.679 19.26H183.679V4.5H179.679H175.679V19.26H179.679Z" fill="black" mask="url(#path-1-outside-1_4_439)"/>
</svg>
